<svg width="723" height="621" viewBox="0 0 723 621" fill="none" xmlns="http://www.w3.org/2000/svg">
<path d="M352.147 232.566C358.01 229.455 365.035 229.455 370.899 232.566L691.759 402.857C705.924 410.375 705.924 430.671 691.759 438.189L370.899 608.479C365.035 611.591 358.01 611.591 352.147 608.479L31.2865 438.189C17.121 430.671 17.1211 410.375 31.2865 402.857L352.147 232.566Z" fill="white" stroke="black" stroke-width="20" stroke-linejoin="round"/>
<path d="M713 366.068C713 320.425 698 298.568 698 298.568L579.5 391.068L698 427.068C698 427.068 713 411.711 713 366.068Z" fill="white"/>
<path d="M698 298.568C698 298.568 713 320.425 713 366.068C713 411.711 698 433.568 698 433.568" stroke="black" stroke-width="20" stroke-linecap="round"/>
<path d="M352.147 122.566C358.01 119.455 365.035 119.455 370.899 122.566L691.759 292.857C705.924 300.375 705.924 320.671 691.759 328.189L370.899 498.479C365.035 501.591 358.01 501.591 352.147 498.479L31.2865 328.189C17.121 320.671 17.1211 300.375 31.2865 292.857L352.147 122.566Z" fill="white" stroke="black" stroke-width="20" stroke-linejoin="round"/>
<path d="M10.0001 255.068C10.0001 209.425 25.0001 187.568 25.0001 187.568L143.5 280.068L25.0001 316.068C25.0001 316.068 10.0001 300.711 10.0001 255.068Z" fill="white"/>
<path d="M25.0001 187.568C25.0001 187.568 10.0001 209.425 10.0001 255.068C10.0001 300.711 25.0001 322.568 25.0001 322.568" stroke="black" stroke-width="20" stroke-linecap="round"/>
<path d="M352.147 12.5665C358.01 9.45465 365.035 9.45465 370.899 12.5665L691.759 182.857C705.924 190.375 705.924 210.671 691.759 218.189L370.899 388.479C365.035 391.591 358.01 391.591 352.147 388.479L31.2865 218.189C17.121 210.671 17.1211 190.375 31.2865 182.857L352.147 12.5665Z" fill="white" stroke="black" stroke-width="20" stroke-linejoin="round"/>
<path d="M361 502.568C361 502.568 373 519.568 373 555.068C373 590.568 361 607.568 361 607.568" stroke="black" stroke-width="20" stroke-linecap="round"/>
</svg>
